<?xml version="1.0" encoding="UTF-8" standalone="no"?>
<!-- Created with Inkscape (http://www.inkscape.org/) -->

<svg
   width="64"
   height="64"
   viewBox="0 0 16.933333 16.933333"
   version="1.1"
   id="svg1"
   inkscape:version="1.3.2 (091e20e, 2023-11-25, custom)"
   sodipodi:docname="drawing.svg"
   xmlns:inkscape="http://www.inkscape.org/namespaces/inkscape"
   xmlns:sodipodi="http://sodipodi.sourceforge.net/DTD/sodipodi-0.dtd"
   xmlns="http://www.w3.org/2000/svg"
   xmlns:svg="http://www.w3.org/2000/svg">
  <sodipodi:namedview
     id="namedview1"
     pagecolor="#505050"
     bordercolor="#ffffff"
     borderopacity="1"
     inkscape:showpageshadow="0"
     inkscape:pageopacity="0"
     inkscape:pagecheckerboard="1"
     inkscape:deskcolor="#505050"
     inkscape:document-units="mm"
     inkscape:export-bgcolor="#00000000"
     inkscape:zoom="11.588215"
     inkscape:cx="-3.4086353"
     inkscape:cy="51.388413"
     inkscape:window-width="1920"
     inkscape:window-height="1009"
     inkscape:window-x="-8"
     inkscape:window-y="-8"
     inkscape:window-maximized="1"
     inkscape:current-layer="layer2" />
  <defs
     id="defs1" />
  <g
     inkscape:groupmode="layer"
     id="layer2"
     inkscape:label="Layer 2"
     style="fill:#4d4d4d">
    <ellipse
       style="fill:#666666;stroke-width:0.1;stroke:#000000;stroke-opacity:1;stroke-dasharray:none"
       id="path6"
       cx="8.7808609"
       cy="6.6193414"
       rx="4.6800976"
       ry="1.582184" />
  </g>
  <g
     inkscape:label="Layer 1"
     inkscape:groupmode="layer"
     id="layer1">
    <path
       style="fill:#000000;stroke-width:0.264583"
       d="M 2.5831576,11.624209 4.1007627,6.4578939 c 1.3700649,1.3491484 5.6158578,2.7800336 9.3316563,-0.032289 l 1.033264,5.2954731 z"
       id="path4"
       sodipodi:nodetypes="ccccc" />
    <path
       style="fill:#999999;stroke-width:0.122039"
       d="M 54.23614,44.255436 C 54.208173,44.23085 44.201704,44.139225 31.999542,44.051825 13.788889,43.921388 9.8248055,43.86422 9.87525,43.732765 c 0.033801,-0.08808 1.306244,-4.40359 2.827652,-9.590015 1.521408,-5.186425 2.78689,-9.452996 2.812183,-9.481267 0.02529,-0.02827 0.251679,0.122716 0.50308,0.335528 3.066791,2.596054 8.363439,4.663996 13.515259,5.276691 1.580147,0.187924 5.033942,0.188778 6.590103,0.0016 4.928147,-0.592672 9.811848,-2.443634 13.605082,-5.156435 0.792913,-0.567067 0.979161,-0.655395 1.02932,-0.488156 0.03368,0.112302 0.890361,4.460293 1.903727,9.662203 1.013368,5.20191 1.872804,9.581582 1.909858,9.732606 0.04636,0.18894 0.01249,0.274587 -0.108576,0.274587 -0.09677,0 -0.198831,-0.02012 -0.226798,-0.0447 z"
       id="path7"
       transform="scale(0.26458333)" />
    <path
       style="fill:#999999;stroke-width:0.122039"
       d="M 44.361156,44.094646 C 18.394781,43.870906 10.677053,43.784413 10.355949,43.71355 L 9.9724704,43.62892 11.484283,38.503284 c 0.831497,-2.819099 2.06915,-7.02029 2.750341,-9.335979 0.681191,-2.315689 1.271791,-4.247157 1.312445,-4.292152 0.04065,-0.045 0.498997,0.240668 1.018541,0.634807 2.770197,2.101537 7.046948,3.818919 11.442327,4.594806 1.568112,0.276808 2.109951,0.313022 4.759519,0.318104 2.561085,0.0049 3.225207,-0.03394 4.630073,-0.270832 4.271117,-0.720218 8.315782,-2.284213 11.702833,-4.525261 0.827613,-0.547591 1.529298,-0.971073 1.5593,-0.941071 0.04852,0.04852 3.547264,17.68106 3.764869,18.973724 l 0.08731,0.518665 -3.519346,-0.02832 c -1.935642,-0.01557 -4.919744,-0.04039 -6.63134,-0.05513 z"
       id="path8"
       transform="scale(0.26458333)" />
    <path
       style="fill:#999999;stroke-width:0.49889765;stroke:#000000;stroke-opacity:1;stroke-dasharray:none"
       d="M 44.361156,44.094646 C 18.394542,43.870903 10.677178,43.784413 10.35671,43.71355 L 9.9739926,43.62892 10.996582,40.15081 c 3.352849,-11.403973 4.484493,-15.202832 4.550364,-15.275286 0.04072,-0.04479 0.513379,0.248014 1.05035,0.650676 2.920786,2.190228 7.158318,3.860234 11.776758,4.641204 2.200671,0.37213 6.707452,0.372048 8.912518,-1.61e-4 4.639062,-0.783062 8.734168,-2.412479 12.416802,-4.940568 0.488287,-0.335204 0.915353,-0.581905 0.949034,-0.548223 0.06354,0.06353 3.834012,19.077456 3.836546,19.347095 0.0015,0.15597 -0.02488,0.15615 -10.127798,0.0691 z"
       id="path9"
       transform="scale(0.26458333)" />
  </g>
</svg>
